<svg width="286" height="147" viewBox="70 70 286 147" fill="none" xmlns="http://www.w3.org/2000/svg">
<g>
<path fill-rule="evenodd" clip-rule="evenodd" d="M167.47 190.34H190.86C191.439 190.334 192.015 190.267 192.58 190.14C195.32 189.68 196.65 186.92 195.17 185.03C190.17 178.64 182.03 173.51 177.45 170.56C179.56 165 180.78 161.02 183.62 155.2C185.26 151.83 179.25 153.67 179.25 153.67C176.62 158.02 174.25 162.13 172.08 166.42C168.57 163.42 162.33 158.09 162.03 158.05C160.42 157.83 158.15 158.9 158.03 160.38C157.952 160.49 157.885 160.607 157.83 160.73C157.744 160.822 157.664 160.919 157.59 161.02C157.08 161.1 157.07 162.19 157.2 162.37C157.226 162.566 157.294 162.754 157.4 162.92C157.51 165.23 159.61 167.5 161.22 168.98C163.276 170.893 165.622 172.47 168.17 173.65C166.344 175.961 164.936 178.574 164.01 181.37C163.32 183.084 162.525 184.754 161.63 186.37H157.78C156.05 186.37 153.69 187.01 152.55 188.42C151.41 189.83 153.55 190.33 154.55 190.33H159.55C158.34 192.504 157.374 194.804 156.67 197.19C156.67 197.3 156.67 197.37 156.67 197.48C156.491 197.696 156.361 197.949 156.29 198.22C156.22 198.492 156.21 198.776 156.261 199.052C156.313 199.328 156.425 199.589 156.589 199.817C156.753 200.045 156.965 200.234 157.21 200.37C166.14 207.18 178.82 202.56 188.95 204.81C189.927 205.086 190.959 205.093 191.94 204.831C192.92 204.568 193.811 204.047 194.52 203.32C194.806 203.049 195.014 202.705 195.121 202.325C195.228 201.945 195.231 201.543 195.128 201.162C195.026 200.781 194.822 200.435 194.539 200.16C194.256 199.885 193.904 199.691 193.52 199.6C188.63 198.51 183.67 198.6 178.68 198.6C174.21 198.6 168.68 198.95 164.61 196.7C164.61 196.7 164.61 196.65 164.61 196.62C165.271 194.407 166.215 192.29 167.42 190.32L167.47 190.34ZM170.47 184.95C171.47 182.88 172.21 178.62 173.99 176.56C177.85 179.5 181.4 183.65 184.85 186.38H169.72C170 185.9 170.25 185.43 170.49 185L170.47 184.95Z" fill="black"/>
<path fill-rule="evenodd" clip-rule="evenodd" d="M225 167.74C220 167.64 212.21 168.44 207.39 168.46C205.14 168.08 200.6 169.46 200.74 171.46C201.361 182.725 202.997 193.91 205.63 204.88C206.22 207.22 214.11 205.15 213.51 202.77C212.51 198.66 211.66 194.5 210.97 190.32C214.63 187.47 218.7 185.23 222.32 182.32C222.58 182.11 222.79 181.85 223.03 181.63C223.141 181.562 223.247 181.489 223.35 181.41C226.477 179.365 229.46 177.11 232.28 174.66C235.89 171.44 233.6 167.88 225 167.72V167.74ZM215.81 171.61C218.81 171.7 222.08 171.49 225.02 172.37C223.36 173.52 213.34 180.96 209.94 183.32C209.453 179.4 209.067 175.473 208.78 171.54C211.12 171.54 213.46 171.54 215.78 171.61H215.81Z" fill="black"/>
<path fill-rule="evenodd" clip-rule="evenodd" d="M279.77 177.78C277.25 175.78 275.18 172.6 273.16 170.11C269.97 166.2 267.16 162.38 261.85 161.7C260.882 161.629 259.914 161.834 259.057 162.29C258.201 162.747 257.491 163.437 257.01 164.28C256.52 164.538 256.078 164.876 255.7 165.28C252 169.48 248.83 174.12 245.03 178.28C242.83 180.66 239.62 183.59 239.48 187.04C239.48 187.36 239.79 187.55 240.25 187.68C240.02 187.78 239.84 187.95 240.12 188.02C245.18 189.27 250.34 188.39 255.48 188.3H258.22C258.73 195.94 261.13 203.36 260.67 211.1C260.59 212.49 268.4 211.47 268.55 208.99C268.96 201.99 267.08 195.22 266.31 188.32C271.93 188.62 277.73 189.39 283.2 187.69C284.83 187.18 287.72 185.03 286.02 183.03C284.32 181.03 281.95 179.58 279.77 177.86V177.78ZM271.1 175.71C272.71 177.54 274.53 180.08 276.31 181.71C276.577 181.96 276.815 182.238 277.02 182.54C273.36 182.71 269.58 182.11 266.02 182.02C266.02 177.73 266.48 173.17 265.48 169.02C267.69 171.02 269.63 173.96 271.14 175.67L271.1 175.71ZM253.44 176.64C254.94 175.01 256.31 173.25 257.67 171.5C258.27 174.929 258.445 178.418 258.19 181.89C255.03 181.8 251.87 181.75 248.71 181.7C250.186 179.922 251.766 178.233 253.44 176.64Z" fill="black"/>
<path fill-rule="evenodd" clip-rule="evenodd" d="M151.44 202.45C150.74 202.06 150.08 201.61 149.44 201.19C147.6 198.67 144.54 197.06 141.82 195.19C140.23 194.08 138.65 193.09 137.06 192.19L135.97 191.37C132.83 189.08 129.43 187.26 126.21 185.12C125.83 184.36 125.96 183.55 127.02 182.7C131.027 180.388 134.9 177.851 138.62 175.1C141.896 173.279 144.921 171.04 147.62 168.44C151.62 164.7 146.94 163.94 144.09 165.51C139.52 168.01 132.01 171.34 127.67 174.51C124.07 176.87 120.61 179.51 116.95 181.73C116.371 182.027 115.875 182.462 115.507 182.998C115.139 183.534 114.909 184.153 114.84 184.8C114.489 185.526 114.421 186.357 114.65 187.13C115.04 188.61 117.11 190.13 118.09 191.05C119.932 192.744 121.943 194.245 124.09 195.53C127.776 197.673 131.567 199.629 135.45 201.39C136.8 202.07 138.18 202.88 139.59 203.59C141.499 205.055 143.503 206.392 145.59 207.59C146.479 208.08 147.497 208.284 148.506 208.175C149.515 208.066 150.466 207.649 151.23 206.98C152.42 205.98 153.32 203.55 151.52 202.56L151.44 202.45Z" fill="black"/>
<path d="M296.996 74.6113C296.296 74.8113 295.696 75.7113 295.696 76.5113C295.696 77.3113 295.296 77.9113 294.796 77.9113C293.996 77.9113 292.596 135.411 293.396 137.611C294.096 139.511 298.696 139.211 298.696 137.411C298.696 136.611 299.396 135.911 300.196 135.911C302.296 135.911 303.096 131.711 302.296 123.511C301.596 115.611 302.696 110.911 305.196 110.911C305.996 110.911 308.296 114.011 310.396 118.111C316.996 130.711 324.796 135.811 325.496 127.911C325.796 124.011 320.996 112.211 317.196 107.711L314.896 105.011L317.396 99.8113C320.096 94.3113 321.496 84.2113 320.296 79.5113C319.796 77.5113 318.996 76.9113 316.796 76.9113C312.796 76.9113 311.996 78.3113 311.396 86.8113C310.996 93.4113 310.596 94.6113 308.196 96.6113C306.696 97.9113 304.996 98.8113 304.296 98.6113C303.596 98.4113 303.096 94.1113 302.896 86.1113C302.596 74.2113 302.596 73.9113 300.396 74.0113C299.196 74.0113 297.596 74.3113 296.996 74.6113Z" fill="black"/>
<path fill-rule="evenodd" clip-rule="evenodd" d="M330.596 97.9114C331.496 90.2114 334.496 80.4114 337.296 76.1114C338.396 74.5114 339.596 73.9114 341.296 74.1114C343.496 74.4114 344.396 75.7114 347.196 82.4114C348.996 86.8114 351.696 95.6114 353.096 101.911C354.596 108.211 356.696 116.111 357.796 119.411C358.896 122.711 359.696 127.611 359.696 130.211V135.011L355.496 134.711C351.396 134.411 351.196 134.211 350.596 130.511C349.796 125.811 348.496 124.911 342.596 124.911C337.796 124.911 336.696 125.811 336.696 130.011C336.696 135.211 329.596 139.511 327.996 135.311C327.496 133.811 328.796 114.011 330.596 97.9114ZM337.14 116.339C337.134 114.826 337.128 113.261 337.072 111.953C337.065 111.793 337.058 111.632 337.05 111.47C337 110.425 336.949 109.335 337.104 108.31C337.209 107.618 337.294 106.912 337.294 106.211C337.294 103.076 337.368 99.9065 337.773 96.7953C338.028 94.8333 338.649 92.9182 339.309 91.0711C339.358 90.9331 339.387 90.7914 339.415 90.649C339.43 90.5737 339.446 90.4983 339.464 90.423C339.551 90.0662 339.688 89.7544 339.828 89.436C339.902 89.268 339.977 89.0981 340.045 88.9189C340.157 88.625 340.362 88.1741 340.654 88.0277C341.143 87.7832 341.782 89.2241 342 89.7149C342.019 89.7562 342.034 89.7908 342.046 89.8171C342.435 90.6689 342.56 91.5955 342.684 92.5189C342.754 93.0389 342.824 93.5578 342.941 94.0618C343.127 94.8642 343.332 95.6632 343.538 96.4626C343.872 97.7636 344.207 99.0656 344.459 100.385C344.673 101.506 344.973 102.604 345.274 103.701C345.568 104.777 345.863 105.853 346.076 106.951C346.234 107.769 346.458 108.565 346.683 109.365C346.735 109.548 346.786 109.73 346.837 109.913C346.964 110.372 347.053 110.841 347.142 111.309C347.22 111.723 347.299 112.136 347.404 112.544C347.539 113.071 347.741 113.575 347.944 114.079C348.098 114.461 348.251 114.843 348.376 115.236C348.578 115.875 348.666 116.636 348.703 117.303C348.704 117.321 348.705 117.338 348.706 117.355C348.743 117.998 348.787 118.781 348.045 118.941C347.697 119.017 347.33 119.017 346.971 119.017C346.878 119.017 346.784 119.017 346.692 119.019C346.276 119.025 345.865 119.103 345.455 119.181C345.133 119.242 344.811 119.302 344.487 119.329C342.984 119.452 341.466 119.376 339.951 119.301C339.02 119.255 338.091 119.209 337.167 119.209C337.149 118.336 337.145 117.349 337.14 116.339Z" fill="black"/>
<path d="M91.7964 84.9114C90.0964 88.8114 88.6964 92.5114 88.6964 93.2114C88.6964 94.0114 88.2964 93.9114 87.6964 92.9114C87.1964 92.1114 86.6964 90.0114 86.6964 88.2114C86.6964 86.4114 86.1964 83.8114 85.4964 82.4114C84.4964 80.1114 83.7964 79.8114 80.2964 80.1114C76.2964 80.4114 76.1964 80.5114 74.8964 85.4114C73.9964 88.6114 73.7964 93.1114 74.1964 97.9114C76.6964 128.711 77.5964 137.911 78.0964 138.811C78.9964 140.111 82.6964 140.211 84.6964 138.911C85.8964 138.211 86.1964 135.411 86.1964 124.711C86.1964 113.411 86.3964 111.411 87.7964 111.111C88.8964 110.911 90.0964 112.911 92.1964 118.111C93.6964 122.111 96.0964 127.511 97.3964 130.111C99.3964 134.311 100.096 134.911 102.896 134.911H105.996L105.396 129.611C104.896 125.111 100.896 113.611 96.6964 104.711C95.5964 102.411 95.6964 101.411 97.6964 97.3114C98.8964 94.7114 100.396 90.2114 100.996 87.3114C101.996 82.6114 101.896 81.8114 100.196 79.9114C96.9964 76.3114 95.1964 77.4114 91.7964 84.9114Z" fill="black"/>
<path fill-rule="evenodd" clip-rule="evenodd" d="M222.996 94.4114C223.896 91.1114 224.896 86.3114 225.196 83.6114C225.796 79.3114 226.096 78.9114 228.496 78.9114C232.796 78.9114 235.996 85.6114 242.996 108.911C247.896 125.242 249.461 130.461 247.725 132.034C246.909 132.772 245.365 132.707 243.096 132.611C238.496 132.411 238.296 132.211 237.496 128.911C235.996 122.911 234.496 119.911 232.496 118.811C229.396 117.211 228.096 119.211 227.396 126.411C226.596 135.111 225.496 136.911 221.096 136.911H217.596L218.296 123.111C218.696 115.611 219.496 107.411 220.196 104.911C220.571 103.572 221.09 101.602 221.629 99.5539C222.096 97.7782 222.578 95.9438 222.996 94.4114ZM227.004 106.74C227 106.213 226.995 105.483 227.009 105.187C227.021 104.94 227.085 104.709 227.15 104.478C227.203 104.287 227.256 104.096 227.279 103.897C227.306 103.659 227.32 103.422 227.334 103.184C227.356 102.801 227.378 102.418 227.457 102.034C227.587 101.409 227.708 100.791 227.714 100.15C227.717 99.7907 227.768 99.4377 227.818 99.0837C227.852 98.848 227.885 98.6118 227.905 98.373C227.981 97.4709 227.997 96.5846 227.997 95.6789C227.997 95.1669 228.004 94.6546 228.012 94.1422C228.03 92.852 228.049 91.5616 227.95 90.2751C227.936 90.0895 227.907 89.9045 227.879 89.7194C227.827 89.3759 227.774 89.0322 227.811 88.6843C227.833 88.4707 228.041 87.986 228.327 88.0003C228.411 88.0045 228.483 88.0789 228.542 88.1408C228.555 88.1542 228.567 88.1671 228.579 88.1785C228.666 88.2635 228.755 88.3467 228.843 88.4298C229.029 88.6055 229.215 88.7806 229.391 88.97C229.529 89.1176 229.673 89.2646 229.819 89.4129C230.238 89.8391 230.668 90.2766 230.969 90.773C231.285 91.2952 231.423 91.8418 231.57 92.4224C231.583 92.4725 231.595 92.5228 231.608 92.5734C231.792 93.2939 232.015 94.0164 232.24 94.725C232.457 95.4079 232.64 96.106 232.822 96.8035C232.948 97.2833 233.073 97.7627 233.21 98.2367C233.434 99.0169 233.775 99.7666 234.115 100.515C234.344 101.019 234.573 101.522 234.766 102.034C235.049 102.785 235.372 103.513 235.695 104.243C235.845 104.58 235.994 104.918 236.14 105.258C236.323 105.684 236.517 106.104 236.712 106.523C236.93 106.992 237.147 107.461 237.348 107.939C237.367 107.984 237.4 108.046 237.439 108.117C237.584 108.385 237.802 108.789 237.61 108.982C237.539 109.053 237.465 109.034 237.381 109.013C237.347 109.005 237.312 108.996 237.274 108.992C236.811 108.946 236.346 108.865 235.884 108.785C235.777 108.767 235.67 108.748 235.563 108.73C234.745 108.592 233.917 108.489 233.089 108.387C231.574 108.199 230.057 108.011 228.592 107.603C228.562 107.595 228.531 107.586 228.501 107.578C228.012 107.441 227.497 107.298 227.006 107.2C227.006 107.093 227.005 106.929 227.004 106.74Z" fill="black"/>
<path d="M240.996 82.6114C240.696 83.3114 240.896 85.1114 241.496 86.6114C242.396 89.4114 242.496 89.4114 250.596 89.4114C261.696 89.4114 261.696 89.3114 261.796 107.811C261.896 115.811 262.196 124.911 262.496 127.911C263.096 133.011 263.396 133.411 265.996 133.711C267.696 133.911 268.696 133.611 268.696 132.711C268.696 132.011 269.396 130.011 270.296 128.411C271.596 125.911 271.796 122.511 271.596 107.911L271.196 90.5114L280.196 90.8114L289.196 91.0114L290.596 87.8114C291.896 84.9114 291.796 84.5114 290.196 83.2114C288.196 81.8114 284.296 81.6114 257.296 81.5114C245.696 81.4114 241.296 81.7114 240.996 82.6114Z" fill="black"/>
<path d="M187.196 90.1114C185.696 104.611 186.896 114.911 189.996 114.911C190.696 114.911 192.896 115.811 194.996 116.811C196.996 117.811 199.796 119.011 201.196 119.311C203.796 120.011 204.196 120.911 205.096 129.311C205.896 135.611 207.996 138.911 211.196 138.911C214.896 138.911 216.096 135.111 214.596 128.111C213.996 125.111 213.596 116.711 213.696 109.511C214.096 85.0114 213.996 83.9114 211.396 83.9114C206.896 83.9114 205.896 85.8114 205.496 95.1114C205.196 104.611 204.196 106.511 200.296 105.511C196.596 104.611 194.696 100.111 194.696 92.4114C194.696 84.7114 193.496 81.9114 190.296 81.9114C188.096 81.9114 187.896 82.4114 187.196 90.1114Z" fill="black"/>
<path fill-rule="evenodd" clip-rule="evenodd" d="M115.196 107.311C116.896 95.5113 117.496 93.6113 122.496 85.1113C126.396 78.4113 128.896 77.3113 132.096 80.7113C133.796 82.7113 143.096 110.211 146.296 122.611C147.796 128.911 147.896 130.211 146.696 132.411C145.496 134.611 144.696 134.911 141.796 134.711C138.396 134.411 138.296 134.211 136.096 126.911C133.096 117.211 131.5 115.6 126 116C122.2 116.3 121.196 115.711 120.496 118.911C120.096 120.811 119.696 125.911 119.596 130.211L119.396 138.011L114.796 137.711C110.396 137.411 110.196 137.211 109.896 134.211C109.696 132.411 110.496 127.911 111.596 124.211C112.696 120.511 114.296 112.811 115.196 107.311ZM123 111.467C123.105 110.649 123.429 109.877 123.818 109.159C123.909 108.992 123.967 108.815 124.025 108.638C124.072 108.496 124.118 108.355 124.181 108.219C124.353 107.847 124.435 107.462 124.502 107.059C124.604 106.439 124.735 105.83 124.867 105.217C124.887 105.126 124.907 105.034 124.926 104.943C125.058 104.328 125.14 103.71 125.223 103.088C125.235 102.998 125.246 102.909 125.258 102.82C125.471 101.238 125.969 99.6704 126.455 98.1425C126.519 97.9429 126.582 97.7441 126.644 97.546C126.673 97.455 126.702 97.364 126.731 97.2729C127.083 96.1576 127.437 95.0375 127.567 93.8707C127.569 93.8576 127.57 93.8447 127.571 93.8318C127.595 93.6149 127.617 93.4203 127.689 93.2105C127.715 93.1349 127.727 93.0582 127.739 92.9816C127.755 92.8874 127.77 92.7932 127.81 92.7009C127.956 92.3683 128.169 92.0709 128.383 91.7734C128.543 91.5504 128.704 91.3273 128.835 91.0891C129.004 90.7836 129.192 90.3908 129.219 90.0371C129.225 89.9627 129.245 90.0177 129.257 90.0506C129.259 90.0559 129.26 90.0606 129.262 90.0642C129.319 90.206 129.344 90.3822 129.366 90.5392C129.369 90.5621 129.373 90.5846 129.376 90.6066C129.408 90.8235 129.428 91.0417 129.447 91.2598C129.467 91.4724 129.486 91.6848 129.517 91.896C129.534 92.0154 129.555 92.1325 129.576 92.2489C129.622 92.5035 129.667 92.755 129.671 93.0214C129.681 93.6217 129.81 94.1958 129.982 94.7664C130.068 95.0503 130.138 95.3372 130.208 95.6242C130.278 95.913 130.349 96.202 130.436 96.4882C130.591 97.0016 130.716 97.527 130.842 98.0505C130.874 98.1862 130.906 98.3219 130.939 98.4571C130.98 98.6243 131.024 98.7909 131.067 98.9576C131.154 99.2881 131.24 99.619 131.304 99.955L131.313 99.9998C131.393 100.421 131.473 100.844 131.565 101.262C131.572 101.293 131.579 101.325 131.586 101.357C131.636 101.578 131.686 101.805 131.686 102.032C131.686 102.184 131.737 102.356 131.786 102.522C131.815 102.618 131.843 102.713 131.86 102.8C131.912 103.065 131.994 103.318 132.077 103.572C132.115 103.692 132.154 103.812 132.19 103.933C132.238 104.095 132.266 104.261 132.295 104.426C132.316 104.55 132.337 104.673 132.366 104.794C132.399 104.933 132.462 105.058 132.526 105.182C132.571 105.272 132.617 105.361 132.651 105.456C132.744 105.71 132.828 105.966 132.911 106.222C133.022 106.565 133.134 106.907 133.267 107.244C133.419 107.626 133.527 108.019 133.635 108.412C133.777 108.925 133.918 109.437 134.155 109.923C134.19 109.995 134.225 110.073 134.261 110.153C134.364 110.38 134.474 110.627 134.613 110.799C134.643 110.837 134.57 110.954 134.525 111.027C134.515 111.042 134.507 111.056 134.501 111.066C134.429 111.191 134.048 111.17 133.843 111.159C133.799 111.157 133.763 111.155 133.74 111.155C133.354 111.155 132.969 111.146 132.583 111.137C132.198 111.129 131.812 111.12 131.426 111.12C130.813 111.12 130.203 111.094 129.593 111.068C128.983 111.042 128.374 111.016 127.762 111.016C127.235 111.016 126.708 110.998 126.181 110.981C125.654 110.963 125.127 110.946 124.6 110.946C124.48 110.946 124.361 110.955 124.241 110.964C124.137 110.971 124.032 110.979 123.927 110.981C123.851 110.982 123.036 111.394 123 111.467Z" fill="black"/>
<path d="M150.196 89.5114C149.796 93.7114 149.896 105.411 150.396 115.511C151.096 130.211 151.696 134.311 152.896 135.611C155.696 138.411 157.296 136.511 157.996 129.811C158.396 126.411 158.696 121.011 158.696 117.811C158.696 112.311 158.6 103.3 160 105.5C161 107.1 166.296 113.111 167.796 111.311C168.496 110.411 170.396 106.911 171.796 103.611L174.496 97.5114L175.096 100.911C175.396 102.811 175.796 110.511 176.096 118.111C176.596 133.311 177.396 135.911 181.596 135.911H184.396L183.996 111.111C183.496 87.9114 183.396 86.3114 181.496 84.6114C178.096 81.7114 175.196 82.5114 170.996 87.6114C168.796 90.3114 166.596 93.2114 165.996 94.3114C165.096 95.9114 164.696 95.6114 162.396 91.7114C159.896 87.4114 153.896 81.9114 151.896 81.9114C151.296 81.9114 150.496 85.3114 150.196 89.5114Z" fill="black"/>
</g>
</svg>
